<svg width="21" height="26" viewBox="0 0 21 26" fill="none" xmlns="http://www.w3.org/2000/svg">
<path d="M11.5868 2.26258C13.2793 0.010977 15.6323 0 15.6323 0C15.6323 0 15.9823 2.11689 14.3009 4.15614C12.5055 6.33359 10.4649 5.97729 10.4649 5.97729C10.4649 5.97729 10.0817 4.26479 11.5868 2.26258V2.26258ZM10.6802 7.46017C11.5509 7.46017 13.1669 6.2521 15.2703 6.2521C18.891 6.2521 20.3154 8.85253 20.3154 8.85253C20.3154 8.85253 17.5296 10.2902 17.5296 13.7786C17.5296 17.7137 21 19.0699 21 19.0699C21 19.0699 18.5741 25.9618 15.2973 25.9618C13.7923 25.9618 12.6222 24.9381 11.0365 24.9381C9.42047 24.9381 7.81683 26 6.77236 26C3.78017 26.0001 0 19.4624 0 14.2072C0 9.03684 3.19967 6.32454 6.20083 6.32454C8.15185 6.32454 9.66587 7.46017 10.6802 7.46017V7.46017Z" fill="white"/>
</svg>
